<svg height="511pt" viewBox="-51 0 511 511.99781" width="511pt" xmlns="http://www.w3.org/2000/svg"><path d="m3.746094 341.441406 9.863281 6.796875c1.253906.863281 2.738281 1.324219 4.253906 1.324219.144531 0 .285157-.003906.425781-.011719l40.777344-2.316406c2.0625-.117187 3.980469-1.078125 5.3125-2.65625l35.46875-42.085937h29.429688v55.6875l-37.628906 30.371093c-2.039063 1.644531-3.070313 4.238281-2.722657 6.835938l8.859375 65.84375-26.925781 33.289062-11.378906 2.675781c-4.035157.945313-6.535157 4.984376-5.585938 9.015626.8125 3.457031 3.890625 5.785156 7.292969 5.785156.570312 0 1.148438-.0625 1.722656-.199219l13.882813-3.261719c1.617187-.378906 3.066406-1.289062 4.113281-2.582031l30.574219-37.800781c1.296875-1.605469 1.875-3.671875 1.601562-5.71875l-8.726562-64.863282 24.921875-20.113281v2.324219c0 37.804688 23.507812 60.300781 43.226562 72.515625 19.578125 12.128906 44.992188 12.132813 64.574219 0 19.722656-12.214844 43.230469-34.710937 43.230469-72.515625v-2.324219l24.917968 20.113281-8.722656 64.863282c-.277344 2.046875.300782 4.113281 1.601563 5.71875l30.570312 37.800781c1.046875 1.292969 2.496094 2.203125 4.117188 2.582031l13.878906 3.261719c.578125.136719 1.15625.199219 1.722656.199219 3.402344 0 6.484375-2.328125 7.292969-5.785156.949219-4.03125-1.550781-8.066407-5.582031-9.015626l-11.382813-2.675781-26.921875-33.289062 8.855469-65.84375c.351562-2.597657-.683594-5.191407-2.722656-6.835938l-37.625-30.371093v-55.6875h29.429687l35.46875 42.085937c1.328125 1.578125 3.25 2.539063 5.308594 2.65625l40.777344 2.316406c.144531.007813.285156.011719.425781.011719 1.519531 0 3-.460938 4.253906-1.324219l9.867188-6.796875c3.410156-2.347656 4.269531-7.019531 1.917968-10.429687-2.347656-3.410157-7.019531-4.269531-10.429687-1.921875l-7.75 5.339844-34.984375-1.988282-35.632812-42.285156c-1.425782-1.6875-3.523438-2.664062-5.734376-2.664062h-32.917968v-5.632813c0-8.570313-5.660156-15.859375-13.53125-18.574219 4.714844-5.4375 7.921875-11.488281 9.417968-17.859375l40.058594 4.539063c.28125.03125.5625.046875.84375.046875 2.300782 0 4.496094-1.058594 5.925782-2.902344l31.421874-40.460937 28.914063-15.492188c3.652344-1.957031 5.027344-6.5 3.070313-10.152344-1.953126-3.652344-6.5-5.023437-10.152344-3.070312l-30.320313 16.242187c-.925781.496094-1.734375 1.183594-2.378906 2.011719l-29.820313 38.398438-37.246093-4.21875c-1.859375-9.75-7.6875-18.679688-16.460938-25.886719 6.910157-7.023438 11.523438-15.929688 13.21875-25.628907l23.015625-27.316406 29.527344-7.210937c1.863281-.453125 3.484375-1.605469 4.523438-3.21875l10.242187-15.875c2.246094-3.480469 1.246094-8.121094-2.234375-10.367188-3.480469-2.246093-8.121094-1.246093-10.367188 2.234375l-8.625 13.367188-29.003906 7.078125c-1.546875.378906-2.929687 1.238281-3.957031 2.457031l-14.300781 16.976562c-.855469-2.929687-1.980469-5.777343-3.378906-8.511718 7.914062-10.289063 16.113281-25.339844 20.378906-46.429688.820312-4.058594-1.804688-8.015625-5.863282-8.835937-4.058593-.820313-8.015624 1.804687-8.835937 5.863281-3.855469 19.039062-13.160156 38.871094-28.09375 51.351562-2.195313 1.207032-4.398437.738282-6.0625-1.015624-1.679687-1.769532-2.113281-4.171876-.578125-6.464844 12.003906-17.949219 22.785156-41.007813 23.539062-62.691406.269532-7.710938-3.945312-15.015626-10.734374-18.613282-3.554688-1.878906-8.96875-5.066406-14.597657-9.558594l7.53125 1.957032c3.976563 1.035156 8.238281.09375 11.410157-2.511719 3.167968-2.605469 4.914062-6.605469 4.675781-10.703125-.25-4.1875-.652344-9.375-1.308594-14.902344 7.410156 10.238282 14.828125 24.191406 16.429687 40.378906.40625 4.121094 4.074219 7.132813 8.203126 6.726563 4.121093-.410156 7.132812-4.082031 6.726562-8.203125-2.835938-28.675781-20.519531-50.878906-30.808594-61.5625-3.3125-3.4375-8.367187-4.234375-12.578125-1.976562-4.195312 2.25-6.328125 6.882812-5.300781 11.53125 1.9375 8.75 2.945312 18.511718 3.472656 25.964843l-20.804687-5.398437c-4.417969-1.148438-9.050781.664062-11.523438 4.507812-2.464843 3.828125-2.195312 8.769532.660157 12.296875 9.855468 12.164063 22.183593 20.152344 30.789062 24.710938 1.777344.941406 2.835938 2.792969 2.765625 4.835937-.535156 15.429688-7.238281 31.15625-13.765625 42.96875-1.253906-.238281-2.515625-.429687-3.785156-.570312 2.722656-7 3.84375-16.777344-.917969-29.375-1.464844-3.875-5.789063-5.832032-9.667969-4.363282-3.875 1.460938-5.828125 5.789063-4.363281 9.664063 4.941406 13.070313.648437 20.671875-1.972656 23.777344h-17.878907c-2.617187-3.109375-6.910156-10.707031-1.972656-23.777344 1.464844-3.875-.488281-8.203125-4.363281-9.664063-3.871094-1.464843-8.203125.488282-9.667969 4.363282-4.761718 12.597656-3.640625 22.375-.917968 29.375-1.269532.140625-2.53125.332031-3.785157.570312-6.527343-11.8125-13.230469-27.539062-13.765625-42.96875-.070312-2.042968.988282-3.894531 2.765625-4.835937 8.605469-4.558594 20.933594-12.546875 30.785157-24.710938 2.859374-3.527343 3.128906-8.46875.664062-12.296875-2.472656-3.84375-7.105469-5.652344-11.523438-4.507812l-20.804687 5.398437c.527344-7.453125 1.535156-17.210937 3.472656-25.964843 1.027344-4.644532-1.101562-9.28125-5.300781-11.53125-4.210938-2.257813-9.265625-1.460938-12.578125 1.976562-11.652344 12.105469-31.207031 37.226562-31.207031 69.476562 0 37.050782 12.097656 61.285157 23.222656 75.730469-1.398438 2.738281-2.527344 5.589844-3.378906 8.523438l-14.304688-16.976563c-1.023437-1.21875-2.410156-2.078125-3.957031-2.457031l-29.003906-7.078125-8.621094-13.367188c-2.246094-3.480468-6.886719-4.480468-10.371094-2.234374-3.476562 2.246093-4.480469 6.886718-2.234375 10.367187l10.242188 15.875c1.042968 1.613281 2.660156 2.765625 4.523437 3.21875l29.53125 7.210937 23.015625 27.316407c1.691406 9.679687 6.289063 18.574219 13.183594 25.589843-8.792969 7.210938-14.589844 16.148438-16.429688 25.925782l-37.242187 4.214844-29.816406-38.394532c-.648438-.832031-1.457031-1.515625-2.382813-2.011718l-30.320312-16.246094c-3.65625-1.957032-8.195313-.582032-10.152344 3.070312-1.957031 3.648438-.582031 8.195313 3.066406 10.152344l28.914063 15.488281 31.425781 40.464844c1.429688 1.839844 3.621094 2.902344 5.921875 2.902344.28125 0 .5625-.019531.847656-.050781l40.058594-4.535157c1.492187 6.371094 4.699219 12.421875 9.414063 17.859375-7.867188 2.714844-13.527344 10.003906-13.527344 18.574219v5.632813h-32.917969c-2.210937 0-4.3125.976562-5.734375 2.664062l-35.636719 42.285156-34.984375 1.988282-7.75-5.339844c-3.410156-2.347656-8.082031-1.488282-10.429687 1.921875-2.351563 3.410156-1.492188 8.082031 1.921875 10.429687zm140.53125 38.339844v-97.921875c0-2.601563 2.367187-4.722656 5.28125-4.722656h47.730468v168.660156c-6.019531-.957031-11.757812-3.074219-16.886718-6.25-23.972656-14.851563-36.125-34.957031-36.125-59.765625zm121.03125 0c0 24.808594-12.15625 44.914062-36.128906 59.761719-5.128907 3.179687-10.871094 5.296875-16.890626 6.253906v-168.660156h47.730469c2.914063 0 5.285157 2.121093 5.285157 4.722656v97.921875zm-115.894532-353.894531c-.65625 5.535156-1.0625 10.730469-1.3125 14.925781-.238281 4.097656 1.507813 8.097656 4.675782 10.703125 3.171875 2.601563 7.4375 3.542969 11.410156 2.511719l7.535156-1.957032c-5.628906 4.492188-11.046875 7.675782-14.601562 9.558594-6.789063 3.59375-11 10.902344-10.734375 18.613282.753906 21.621093 11.476562 44.652343 23.542969 62.6875 2.128906 3.1875.09375 5.757812-.582032 6.46875-1.691406 1.777343-3.894531 2.203124-6.046875 1.023437-15.746093-12.792969-30.648437-40.039063-30.648437-77.699219 0-18.917968 8.3125-35.1875 16.761718-46.835937zm1.15625 144.582031c0-3.386719.511719-6.726562 1.507813-9.917969 17.855469 15.847657 41.136719-4.992187 31.628906-23.726562.316407-.003907 41.648438-.007813 42.171875 0-9.488281 18.675781 13.691406 39.578125 31.628906 23.726562.992188 3.191407 1.503907 6.53125 1.503907 9.917969 0 9.96875-4.410157 19.292969-11.980469 25.671875-7.417969-3.683594-15.9375-6.433594-25.265625-7.96875-4.089844-.675781-7.945313 2.089844-8.617187 6.179687-.675782 4.085938 2.09375 7.945313 6.179687 8.617188 40.675781 6.707031 58.699219 38.917969 25.664063 59.171875-8.515626 0-71.886719 0-80.398438 0-23.332031-14.308594-22.664062-36.675781.886719-50.542969.136719-.074218.269531-.15625.402343-.238281 5.976563-3.453125 13.160157-6.160156 21.171876-7.800781 4.058593-.832032 6.671874-4.796875 5.839843-8.855469s-4.796875-6.675781-8.851562-5.839844c-7.894531 1.617188-15.125 4.09375-21.515625 7.257813-7.554688-6.386719-11.957032-15.695313-11.957032-25.652344zm0 0"/></svg>